# xmcd CD database file
#
# Track frame offsets:
#	150
#	11819
#	24017
#	37058
#	49101
#	61313
#	71127
#	83282
#	96274
#	110817
#
# Disc length: 1704 seconds
#
# Revision: 0
# Processed by: cddbd v1.5.2PL0 Copyright (c) Steve Scherf et al.
# Submitted via: CDex 1.70beta2
#
DISCID=7d06a60a
DTITLE=The McNasty Brothers - Superstition State Of Mind
DYEAR=1997
DGENRE=Country
TTITLE0=Superstition State Of Mind
TTITLE1=Magic Mountain Brakedown
TTITLE2=Arizona
TTITLE3=Lone Ranger
TTITLE4=Shiny Golden Mare
TTITLE5=Muggy On The Rim
TTITLE6=Freeway
TTITLE7=Rope The Wind
TTITLE8=Doc Feeber
TTITLE9=Jaw Harp Joe
EXTD=YEAR: 1997
EXTT0=
EXTT1=
EXTT2=
EXTT3=
EXTT4=
EXTT5=
EXTT6=
EXTT7=
EXTT8=
EXTT9=
PLAYORDER=
